<svg width="30" height="30" viewBox="0 0 30 30" fill="none" xmlns="http://www.w3.org/2000/svg">
<path d="M14.9781 10.7311C13.8525 10.7311 12.773 11.1783 11.9771 11.9742C11.1811 12.7701 10.734 13.8496 10.734 14.9753C10.734 16.1009 11.1811 17.1804 11.9771 17.9763C12.773 18.7723 13.8525 19.2194 14.9781 19.2194C16.1038 19.2194 17.1833 18.7723 17.9792 17.9763C18.7751 17.1804 19.2223 16.1009 19.2223 14.9753C19.2223 13.8496 18.7751 12.7701 17.9792 11.9742C17.1833 11.1783 16.1038 10.7311 14.9781 10.7311ZM14.9781 7.90169C16.8542 7.90169 18.6534 8.64694 19.9799 9.97349C21.3065 11.3 22.0517 13.0992 22.0517 14.9753C22.0517 16.8513 21.3065 18.6505 19.9799 19.977C18.6534 21.3036 16.8542 22.0488 14.9781 22.0488C13.1021 22.0488 11.3029 21.3036 9.97637 19.977C8.64982 18.6505 7.90457 16.8513 7.90457 14.9753C7.90457 13.0992 8.64982 11.3 9.97637 9.97349C11.3029 8.64694 13.1021 7.90169 14.9781 7.90169ZM24.1738 7.54801C24.1738 8.01702 23.9875 8.46682 23.6558 8.79846C23.3242 9.13009 22.8744 9.31641 22.4054 9.31641C21.9364 9.31641 21.4866 9.13009 21.1549 8.79846C20.8233 8.46682 20.637 8.01702 20.637 7.54801C20.637 7.07901 20.8233 6.62921 21.1549 6.29757C21.4866 5.96593 21.9364 5.77962 22.4054 5.77962C22.8744 5.77962 23.3242 5.96593 23.6558 6.29757C23.9875 6.62921 24.1738 7.07901 24.1738 7.54801ZM14.9781 3.65755C11.4781 3.65755 10.9066 3.66746 9.27826 3.73961C8.16912 3.79195 7.42498 3.94049 6.7346 4.20929C6.15716 4.42202 5.63498 4.76193 5.20671 5.20383C4.76429 5.63195 4.4239 6.15415 4.21076 6.73172C3.94196 7.42493 3.79341 8.16766 3.74249 9.27538C3.66892 10.8372 3.65902 11.3833 3.65902 14.9753C3.65902 18.4767 3.66892 19.0468 3.74107 20.6751C3.79342 21.7829 3.94196 22.5284 4.20934 23.2174C4.44984 23.8328 4.73278 24.2756 5.20247 24.7453C5.67923 25.2206 6.12203 25.505 6.73036 25.7398C7.42923 26.01 8.17337 26.16 9.27684 26.2109C10.8387 26.2845 11.3848 26.293 14.9767 26.293C18.4781 26.293 19.0483 26.2831 20.6766 26.2109C21.7829 26.1586 22.5271 26.01 23.2188 25.7426C23.7963 25.5299 24.3185 25.19 24.7467 24.7481C25.2235 24.2728 25.5079 23.83 25.7427 23.2202C26.0115 22.5242 26.1615 21.78 26.2124 20.6737C26.2859 19.1133 26.2944 18.5658 26.2944 14.9753C26.2944 11.4753 26.2845 10.9037 26.2124 9.27538C26.16 8.16907 26.0101 7.4221 25.7427 6.73172C25.53 6.15428 25.1901 5.6321 24.7482 5.20383C24.32 4.76142 23.7978 4.42102 23.2203 4.20788C22.5271 3.93908 21.7829 3.79054 20.6766 3.73961C19.1162 3.66604 18.5701 3.65755 14.9767 3.65755M14.9767 0.828125C18.8205 0.828125 19.3001 0.842272 20.8096 0.913008C22.3148 0.983743 23.3419 1.22 24.2431 1.57085C25.1768 1.93019 25.9634 2.41685 26.75 3.20201C27.4696 3.90899 28.0263 4.76453 28.3811 5.70889C28.7306 6.61006 28.9682 7.63714 29.039 9.14381C29.1055 10.6519 29.1239 11.1315 29.1239 14.9753C29.1239 18.819 29.1097 19.2986 29.039 20.8067C28.9682 22.3148 28.7306 23.339 28.3811 24.2416C28.0263 25.186 27.4696 26.0415 26.75 26.7485C26.043 27.4682 25.1875 28.0248 24.2431 28.3797C23.3419 28.7291 22.3148 28.9668 20.8096 29.0375C19.3001 29.104 18.8205 29.1224 14.9767 29.1224C11.1329 29.1224 10.6534 29.1083 9.14386 29.0375C7.63861 28.9668 6.61294 28.7291 5.71035 28.3797C4.76599 28.0248 3.91046 27.4682 3.20348 26.7485C2.48382 26.0415 1.92715 25.186 1.57231 24.2416C1.22147 23.3405 0.985208 22.3134 0.914473 20.8067C0.846566 19.2986 0.82959 18.819 0.82959 14.9753C0.82959 11.1315 0.843737 10.6519 0.914473 9.14381C0.985208 7.63573 1.22147 6.61147 1.57231 5.70889C1.92715 4.76453 2.48382 3.90899 3.20348 3.20201C3.91046 2.48236 4.76599 1.92568 5.71035 1.57085C6.61152 1.22 7.63719 0.983743 9.14386 0.913008C10.6548 0.846516 11.1344 0.828125 14.9781 0.828125" fill="black"/>
</svg>
