<svg width="12" height="14" viewBox="0 0 12 14" fill="none" xmlns="http://www.w3.org/2000/svg">
<path d="M8.39995 6.20117C8.39995 6.83769 8.14709 7.44814 7.697 7.89822C7.24691 8.34831 6.63646 8.60117 5.99994 8.60117C5.36343 8.60117 4.75298 8.34831 4.30289 7.89822C3.8528 7.44814 3.59994 6.83769 3.59994 6.20117C3.59994 5.56465 3.8528 4.9542 4.30289 4.50411C4.75298 4.05402 5.36343 3.80117 5.99994 3.80117C6.63646 3.80117 7.24691 4.05402 7.697 4.50411C8.14709 4.9542 8.39995 5.56465 8.39995 6.20117ZM7.59995 6.20117C7.59995 5.77682 7.43137 5.36985 7.13132 5.0698C6.83126 4.76974 6.42429 4.60117 5.99994 4.60117C5.5756 4.60117 5.16863 4.76974 4.86857 5.0698C4.56852 5.36985 4.39994 5.77682 4.39994 6.20117C4.39994 6.62551 4.56852 7.03248 4.86857 7.33254C5.16863 7.6326 5.5756 7.80117 5.99994 7.80117C6.42429 7.80117 6.83126 7.6326 7.13132 7.33254C7.43137 7.03248 7.59995 6.62551 7.59995 6.20117ZM9.95994 10.1652C11.0103 9.1143 11.6003 7.68934 11.6003 6.20357C11.6003 4.7178 11.0103 3.29284 9.95994 2.24197C9.43993 1.7219 8.82257 1.30935 8.1431 1.02789C7.46364 0.74643 6.7354 0.601563 5.99994 0.601562C5.26449 0.601563 4.53625 0.74643 3.85679 1.02789C3.17733 1.30935 2.55996 1.7219 2.03994 2.24197C0.989619 3.29284 0.399597 4.7178 0.399597 6.20357C0.399597 7.68934 0.989619 9.1143 2.03994 10.1652L3.25674 11.3644L4.89115 12.9524L4.99754 13.0468C5.61754 13.5492 6.52554 13.5172 7.10954 12.9524L9.05754 11.0564L9.95994 10.1652ZM2.60394 2.80597C3.04974 2.35968 3.57912 2.00564 4.16183 1.76408C4.74454 1.52252 5.36915 1.39819 5.99994 1.39819C6.63074 1.39819 7.25535 1.52252 7.83806 1.76408C8.42077 2.00564 8.95015 2.35968 9.39594 2.80597C10.2714 3.68252 10.7746 4.86315 10.8009 6.1017C10.8271 7.34025 10.3743 8.54113 9.53675 9.45397L9.39594 9.60117L8.33915 10.6444L6.55514 12.3796L6.47995 12.4436C6.34138 12.5473 6.17291 12.6033 5.99981 12.6032C5.82671 12.603 5.65833 12.5467 5.51994 12.4428L5.44554 12.3788L3.06154 10.0548L2.60394 9.60117L2.46314 9.45477C1.62563 8.54193 1.17279 7.34105 1.19902 6.1025C1.22525 4.86395 1.72853 3.68252 2.60394 2.80597Z" fill="black"/>
</svg>
