<svg width="312" height="127" viewBox="0 0 312 127" fill="none" xmlns="http://www.w3.org/2000/svg">
<path d="M287.159 25.9697C287.463 27.0691 287.048 28.4477 285.729 30.13C284.419 31.7995 282.292 33.6708 279.398 35.7055C273.616 39.7713 264.879 44.4185 253.823 49.353C231.72 59.2187 200.432 70.1968 165.202 79.9438C129.972 89.6908 97.4911 96.3555 73.4598 99.254C61.4402 100.704 51.5565 101.208 44.5071 100.693C40.9791 100.435 38.1923 99.9228 36.2111 99.1638C34.2146 98.3989 33.1503 97.4294 32.8462 96.33C32.542 95.2306 32.9566 93.852 34.2761 92.1697C35.5854 90.5003 37.7129 88.6289 40.6065 86.5942C46.3884 82.5285 55.1259 77.8812 66.1814 72.9468C88.2851 63.081 119.573 52.1029 154.803 42.3559C190.033 32.6089 222.514 25.9442 246.545 23.0458C258.565 21.5961 268.448 21.0914 275.498 21.6071C279.026 21.8652 281.812 22.3769 283.794 23.136C285.79 23.9008 286.854 24.8703 287.159 25.9697Z" stroke="white"/>
<path d="M290.451 4.1137L288.377 16.2233C287.605 20.7341 290.492 25.0622 294.953 26.0823L306.93 28.8205L294.82 26.7473C290.31 25.9751 285.981 28.8619 284.961 33.3233L282.223 45.3L284.296 33.1904C285.069 28.6796 282.182 24.3514 277.72 23.3314L265.744 20.5931L277.853 22.6664C282.364 23.4386 286.692 20.5517 287.712 16.0904L290.451 4.1137Z" fill="#2121CB"/>
<path d="M48.8131 83.8804L38.3068 91.3151C34.3932 94.0846 33.3255 99.4293 35.8748 103.49L42.7184 114.39L35.2837 103.884C32.5143 99.9704 27.1695 98.9028 23.1091 101.452L12.2085 108.296L22.7148 100.861C26.6284 98.0915 27.6961 92.7468 25.1468 88.6863L18.3032 77.7857L25.7379 88.292C28.5073 92.2056 33.8521 93.2733 37.9125 90.7241L48.8131 83.8804Z" fill="#2121CB"/>
</svg>
