<svg width="11" height="10" viewBox="0 0 11 10" fill="none" xmlns="http://www.w3.org/2000/svg">
<path d="M9.99955 5.621V9H10.4995V10H0.499977V9H0.999955V5.621C0.692279 5.41542 0.440057 5.13712 0.265634 4.81076C0.091211 4.4844 -2.81657e-05 4.12005 6.52216e-09 3.75C6.52216e-09 3.3365 0.111995 2.938 0.316486 2.5985L1.67242 0.25C1.71631 0.173992 1.77942 0.110875 1.85542 0.0669905C1.93143 0.0231064 2.01764 2.22961e-06 2.1054 0H8.8946C8.98236 2.22961e-06 9.06857 0.0231064 9.14458 0.0669905C9.22058 0.110875 9.2837 0.173992 9.32758 0.25L10.679 2.591C10.888 2.938 11 3.336 11 3.75C11 4.53 10.6025 5.2175 9.99955 5.621ZM9.00009 5.986C8.65633 6.02441 8.30835 5.98304 7.98317 5.86511C7.658 5.74717 7.3644 5.55585 7.12518 5.306C6.91516 5.5255 6.66287 5.7002 6.38352 5.81956C6.10416 5.93892 5.80353 6.00047 5.49975 6.0005C5.19612 6.00053 4.89563 5.93911 4.61637 5.81992C4.33711 5.70074 4.08487 5.52626 3.87482 5.307C3.63556 5.55676 3.34193 5.74799 3.01676 5.86584C2.69159 5.98369 2.34363 6.02498 1.99991 5.9865V9H8.99959L9.00009 5.986ZM2.39439 1L1.17795 3.1065C1.08994 3.25445 1.03345 3.41899 1.012 3.5898C0.990551 3.76061 1.00462 3.93401 1.05331 4.09913C1.10201 4.26425 1.18428 4.41753 1.29498 4.54937C1.40568 4.68121 1.54242 4.78875 1.69662 4.86527C1.85083 4.94179 2.01917 4.98563 2.19111 4.99404C2.36305 5.00246 2.53487 4.97526 2.69581 4.91417C2.85675 4.85307 3.00333 4.75939 3.12637 4.63899C3.24941 4.51859 3.34626 4.37408 3.41085 4.2145C3.57834 3.796 4.17081 3.796 4.3388 4.2145C4.43145 4.44671 4.59159 4.6458 4.79854 4.78605C5.0055 4.9263 5.24975 5.00127 5.49975 5.00127C5.74975 5.00127 5.994 4.9263 6.20095 4.78605C6.40791 4.6458 6.56805 4.44671 6.6607 4.2145C6.82819 3.796 7.42066 3.796 7.58865 4.2145C7.65354 4.37422 7.75076 4.5188 7.87421 4.63914C7.99766 4.75948 8.14467 4.85298 8.30599 4.91376C8.46731 4.97454 8.63947 5.0013 8.81163 4.99234C8.98379 4.98339 9.15224 4.93891 9.30638 4.86171C9.46053 4.78452 9.59704 4.67627 9.70733 4.54377C9.81763 4.41127 9.89932 4.25738 9.94728 4.09179C9.99524 3.92619 10.0084 3.75247 9.98602 3.58153C9.96361 3.41059 9.90608 3.24613 9.81705 3.0985L8.60461 1H2.39439Z" fill="white"/>
</svg>
