<svg width="60" height="60" viewBox="0 0 60 60" fill="none" xmlns="http://www.w3.org/2000/svg">
<g clip-path="url(#clip0_1_647)">
<path d="M1.28096 29.64C1.27955 34.6812 2.60705 39.6035 5.13127 43.9421L1.03955 58.7658L16.3283 54.7882C20.557 57.0723 25.2949 58.2692 30.1096 58.2695H30.1222C46.0163 58.2695 58.9545 45.4363 58.9613 29.6626C58.9644 22.0191 55.9672 14.8316 50.5217 9.42419C45.0772 4.01721 37.8362 1.03791 30.121 1.03442C14.225 1.03442 1.28775 13.867 1.28119 29.64" fill="url(#paint0_linear_1_647)"/>
<path d="M0.250781 29.6316C0.249141 34.8542 1.62422 39.9526 4.23844 44.4465L0 59.8016L15.837 55.6814C20.2005 58.0421 25.1135 59.2867 30.1127 59.2886H30.1256C46.59 59.2886 59.993 45.9937 60 29.6553C60.0028 21.7372 56.8978 14.2914 51.2578 8.69023C45.6171 3.08977 38.1171 0.00325581 30.1256 0C13.6584 0 0.257344 13.293 0.250781 29.6316ZM9.68227 43.6726L9.09094 42.7412C6.60516 38.8193 5.29312 34.2872 5.295 29.6335C5.30016 16.0533 16.4386 5.00465 30.135 5.00465C36.7678 5.00744 43.0013 7.57302 47.6897 12.2279C52.3779 16.8833 54.9577 23.0716 54.956 29.6535C54.9499 43.2337 43.8112 54.2837 30.1256 54.2837H30.1158C25.6596 54.2814 21.2892 53.0939 17.4778 50.85L16.5708 50.3163L7.17281 52.7612L9.68227 43.6726Z" fill="url(#paint1_linear_1_647)"/>
<path d="M22.6592 17.2448C22.1 16.0115 21.5115 15.9866 20.9797 15.965C20.5442 15.9464 20.0464 15.9478 19.549 15.9478C19.0512 15.9478 18.2424 16.1336 17.5587 16.8743C16.8744 17.6157 14.9459 19.4073 14.9459 23.0513C14.9459 26.6952 17.6208 30.2171 17.9937 30.7117C18.3671 31.2055 23.1577 38.9227 30.7449 41.8915C37.0505 44.3587 38.3337 43.868 39.7022 43.7443C41.071 43.621 44.1188 41.9531 44.7406 40.2236C45.3629 38.4943 45.3629 37.012 45.1763 36.7022C44.9897 36.3936 44.4919 36.2082 43.7455 35.838C42.999 35.4678 39.3289 33.6757 38.6447 33.4285C37.9604 33.1815 37.4628 33.0582 36.965 33.7999C36.4672 34.5403 35.0377 36.2082 34.602 36.7022C34.1668 37.1973 33.7311 37.2589 32.9848 36.8885C32.2379 36.5168 29.8339 35.7357 26.9818 33.2127C24.7627 31.2494 23.2646 28.825 22.8291 28.0834C22.3937 27.3429 22.7825 26.9415 23.1568 26.5724C23.4922 26.2406 23.9035 25.7075 24.2771 25.2752C24.6493 24.8427 24.7735 24.5341 25.0224 24.0401C25.2715 23.5457 25.1469 23.1131 24.9605 22.7427C24.7735 22.3722 23.323 18.7092 22.6592 17.2448Z" fill="white"/>
</g>
<defs>
<linearGradient id="paint0_linear_1_647" x1="2897.13" y1="5774.17" x2="2897.13" y2="1.03442" gradientUnits="userSpaceOnUse">
<stop stop-color="#1FAF38"/>
<stop offset="1" stop-color="#60D669"/>
</linearGradient>
<linearGradient id="paint1_linear_1_647" x1="3000" y1="5980.16" x2="3000" y2="0" gradientUnits="userSpaceOnUse">
<stop stop-color="#F9F9F9"/>
<stop offset="1" stop-color="white"/>
</linearGradient>
<clipPath id="clip0_1_647">
<rect width="60" height="60" rx="8" fill="white"/>
</clipPath>
</defs>
</svg>
