<svg width="14" height="14" viewBox="0 0 14 14" fill="none" xmlns="http://www.w3.org/2000/svg">
<path d="M3.40092 6.58878L1.17285 12.8625L7.44661 10.6403M2.34552 1.72222H2.35138M12.8995 4.65388H12.9054M8.79517 1.13589H8.80104M12.8995 11.6899H12.9054M12.8995 1.13589L11.5861 1.57563C11.2123 1.70016 10.8933 1.95068 10.6836 2.28435C10.474 2.61802 10.3868 3.01414 10.4369 3.40499C10.4955 3.90924 10.1027 4.36071 9.58672 4.36071H9.36392C8.85967 4.36071 8.42578 4.71251 8.33197 5.20503L8.20884 5.82655M12.8995 7.58554L12.4187 7.39205C11.9145 7.1927 11.3516 7.50932 11.2578 8.04288C11.1933 8.45331 10.8356 8.75821 10.4193 8.75821H9.96784M6.44984 1.13589L6.64333 1.61668C6.84269 2.12092 6.52607 2.6838 5.9925 2.77762C5.58207 2.83625 5.27718 3.19978 5.27718 3.61607V4.06755" stroke="black" stroke-width="1.00514" stroke-linecap="round" stroke-linejoin="round"/>
<path d="M6.44981 7.59135C7.58143 8.72297 8.10913 10.0364 7.62248 10.523C7.13582 11.0097 5.82244 10.482 4.69081 9.35034C3.55919 8.21872 3.03149 6.90534 3.51815 6.41868C4.00481 5.93203 5.31819 6.45973 6.44981 7.59135Z" stroke="black" stroke-width="1.00514" stroke-linecap="round" stroke-linejoin="round"/>
</svg>
