<svg width="15" height="16" viewBox="0 0 15 16" fill="none" xmlns="http://www.w3.org/2000/svg">
<path d="M7.04112 0.964012C7.45746 0.964012 7.79497 1.30152 7.79497 1.71787V3.22558C7.79497 3.64192 7.45746 3.97944 7.04112 3.97944C6.62477 3.97944 6.28726 3.64192 6.28726 3.22558V1.71787C6.28726 1.30152 6.62477 0.964012 7.04112 0.964012Z" fill="white"/>
<path d="M9.55397 8C9.55397 9.38781 8.42893 10.5129 7.04112 10.5129C5.65331 10.5129 4.52826 9.38781 4.52826 8C4.52826 6.61219 5.65331 5.48715 7.04112 5.48715C8.42893 5.48715 9.55397 6.61219 9.55397 8Z" fill="white"/>
<path d="M12.0163 4.09089C12.3107 3.79649 12.3107 3.31918 12.0163 3.02478C11.7219 2.73038 11.2446 2.73038 10.9502 3.02478L9.8841 4.09089C9.5897 4.38529 9.5897 4.86261 9.8841 5.15701C10.1785 5.45141 10.6558 5.45141 10.9502 5.15701L12.0163 4.09089Z" fill="white"/>
<path d="M14.0771 8C14.0771 8.41635 13.7396 8.75386 13.3233 8.75386H11.8155C11.3992 8.75386 11.0617 8.41635 11.0617 8C11.0617 7.58366 11.3992 7.24615 11.8155 7.24615H13.3233C13.7396 7.24615 14.0771 7.58366 14.0771 8Z" fill="white"/>
<path d="M10.9502 12.9752C11.2446 13.2696 11.7219 13.2696 12.0163 12.9752C12.3107 12.6808 12.3107 12.2035 12.0163 11.9091L10.9502 10.843C10.6558 10.5486 10.1785 10.5486 9.88411 10.843C9.58971 11.1374 9.58971 11.6147 9.88411 11.9091L10.9502 12.9752Z" fill="white"/>
<path d="M7.04112 12.0206C7.45746 12.0206 7.79497 12.3581 7.79497 12.7744V14.2821C7.79497 14.6985 7.45746 15.036 7.04112 15.036C6.62477 15.036 6.28726 14.6985 6.28726 14.2821V12.7744C6.28726 12.3581 6.62477 12.0206 7.04112 12.0206Z" fill="white"/>
<path d="M4.19814 11.9091C4.49254 11.6147 4.49254 11.1374 4.19814 10.843C3.90374 10.5486 3.42643 10.5486 3.13203 10.843L2.06591 11.9091C1.77151 12.2035 1.77151 12.6808 2.06591 12.9752C2.36031 13.2696 2.83763 13.2696 3.13203 12.9752L4.19814 11.9091Z" fill="white"/>
<path d="M3.02055 8C3.02055 8.41635 2.68304 8.75386 2.2667 8.75386H0.758983C0.34264 8.75386 0.00512695 8.41635 0.00512695 8C0.00512695 7.58366 0.34264 7.24615 0.758983 7.24615H2.2667C2.68304 7.24615 3.02055 7.58366 3.02055 8Z" fill="white"/>
<path d="M3.13204 5.15702C3.42643 5.45142 3.90375 5.45142 4.19815 5.15703C4.49255 4.86263 4.49255 4.38531 4.19815 4.09091L3.13204 3.0248C2.83764 2.7304 2.36032 2.7304 2.06592 3.0248C1.77152 3.3192 1.77152 3.79651 2.06592 4.09091L3.13204 5.15702Z" fill="white"/>
</svg>
