<svg width="14" height="12" viewBox="0 0 14 12" fill="none" xmlns="http://www.w3.org/2000/svg">
<path d="M3.22482 3.36032L1.46582 3.65349C1.94368 1.45064 3.33153 0.72388 4.69065 0.721828C5.56927 0.720362 6.43557 1.02262 7.03598 1.30816C7.63638 1.02262 8.50181 0.721828 9.38131 0.721828C10.7331 0.721828 12.1283 1.45064 12.6061 3.65349L10.8471 3.36032C11.011 3.97597 11.3713 5.05834 10.8471 5.99882C9.9735 5.21519 7.95359 4.03197 7.03598 3.36032C6.11837 4.03197 4.09845 5.21519 3.22482 5.99882C2.70064 5.05864 3.06094 3.97597 3.22482 3.36032Z" stroke="black" stroke-width="1.00514" stroke-linecap="round" stroke-linejoin="round"/>
<path d="M7.03586 3.36245C6.81452 4.50257 6.50494 7.32987 7.03586 9.51894" stroke="black" stroke-width="1.00514" stroke-linecap="round" stroke-linejoin="round"/>
<path d="M3.51807 11.2777H10.5541C9.15067 9.93353 8.50189 9.52017 7.03606 9.5187C5.57023 9.51723 4.07274 10.5102 3.51807 11.2777Z" stroke="black" stroke-width="1.00514" stroke-linecap="round" stroke-linejoin="round"/>
</svg>
