<svg width="12" height="12" viewBox="0 0 12 12" fill="none" xmlns="http://www.w3.org/2000/svg">
<path d="M1.55352 11.173L1.5535 11.173C1.45317 11.2015 1.34704 11.2027 1.24609 11.1765C1.14515 11.1503 1.05304 11.0975 0.979284 11.0238C0.905532 10.95 0.852811 10.8579 0.826571 10.757C0.800331 10.656 0.801523 10.5499 0.830025 10.4496L0.830028 10.4496L1.40567 8.42462C1.01146 7.67819 0.805914 6.8465 0.807122 6.00216M1.55352 11.173L3.58412 10.5434C4.32765 10.9396 5.15746 11.1463 5.99998 11.1451V11.1951C6 11.1951 6.00003 11.1951 6.00005 11.1951C8.86777 11.1951 11.1928 8.86997 11.1928 6.00223C11.1928 3.13448 8.86774 0.809375 5.99998 0.809375C3.13225 0.809375 0.807161 3.13444 0.807122 6.00216M1.55352 11.173L3.57846 10.597L1.55352 11.173ZM0.807122 6.00216L0.857122 6.00223H0.807122C0.807122 6.00221 0.807122 6.00218 0.807122 6.00216ZM1.62191 10.3812L2.12621 8.60877L2.12622 8.60873C2.17515 8.43622 2.15529 8.25145 2.07081 8.09327C1.73858 7.47034 1.54998 6.75882 1.54998 6.00223C1.54998 3.54456 3.54231 1.55223 5.99998 1.55223C8.45765 1.55223 10.45 3.54456 10.45 6.00223C10.45 8.4599 8.45765 10.4522 5.99998 10.4522H5.99989C5.27116 10.4535 4.55337 10.2749 3.9102 9.93225C3.75197 9.84791 3.5672 9.82821 3.39474 9.87728C3.39473 9.87728 3.39473 9.87728 3.39472 9.87728L1.62191 10.3812ZM4.1302 4.77531C4.06054 4.84496 4.02141 4.93944 4.02141 5.03795C4.02141 5.13646 4.06054 5.23093 4.1302 5.30059C4.19985 5.37024 4.29433 5.40938 4.39284 5.40938H7.60712C7.70563 5.40938 7.8001 5.37024 7.86976 5.30059C7.93942 5.23093 7.97855 5.13646 7.97855 5.03795C7.97855 4.93944 7.93942 4.84496 7.86976 4.77531C7.8001 4.70565 7.70563 4.66652 7.60712 4.66652H4.39284C4.29433 4.66652 4.19985 4.70565 4.1302 4.77531ZM4.1302 6.70388C4.06054 6.77353 4.02141 6.86801 4.02141 6.96652C4.02141 7.06503 4.06054 7.1595 4.1302 7.22916C4.19985 7.29881 4.29433 7.33795 4.39284 7.33795H6.32141C6.41992 7.33795 6.51439 7.29881 6.58405 7.22916C6.6537 7.1595 6.69284 7.06503 6.69284 6.96652C6.69284 6.86801 6.6537 6.77353 6.58405 6.70388C6.51439 6.63422 6.41992 6.59509 6.32141 6.59509H4.39284C4.29433 6.59509 4.19985 6.63422 4.1302 6.70388Z" fill="#393AFB" stroke="black" stroke-width="0.1"/>
</svg>
