<svg width="157" height="40" viewBox="0 0 157 40" fill="none" xmlns="http://www.w3.org/2000/svg">
<path fill-rule="evenodd" clip-rule="evenodd" d="M80.6505 15.8546C81.1738 18.0253 81.5009 19.9522 81.5009 21.7652C81.5009 25.2611 80.2661 28.2205 76.9299 31.3912C74.0352 34.1879 70.5191 36.2774 66.7413 37.6839C65.5065 38.1473 64.2554 38.3505 63.0207 38.3505C59.0548 38.3505 55.1707 36.2774 51.9162 34.0091C50.4852 32.9847 48.9234 32.1148 47.5333 31.0335C45.4645 29.4644 44.4178 26.9928 43.6492 24.5782C42.578 21.1229 41.057 17.8871 40.779 14.1879C40.7381 13.8627 40.7381 13.5375 40.7381 13.2205C40.7381 10.8465 41.8502 8.81396 43.6655 7.06599C45.0066 5.76518 46.642 4.53754 48.3428 3.69201C50.2808 2.72453 52.137 2.02534 54.263 1.49689C55.8576 1.07412 57.3785 0.976562 58.834 0.976562C63.9529 0.976562 68.4421 3.57006 72.5797 7.09038C73.1521 7.5538 73.7735 7.99282 74.4195 8.37494C75.597 9.13916 76.9708 9.52128 78.0992 10.3262L78.1401 10.3668C79.8409 11.6107 80.1435 13.944 80.6505 15.8546ZM79.6202 22.5863C79.6202 21.6026 79.3585 20.6595 78.7125 19.9359C77.7558 18.9684 76.0795 18.7652 74.8039 18.0416C73.1521 17.2205 71.9991 15.7489 71.0833 14.1473C69.5869 11.5131 67.7307 9.05786 65.4493 7.09038C63.8874 5.7977 62.0067 4.97656 60.0687 4.35055C58.6541 3.87087 57.1577 3.65136 55.6777 3.65136C51.5728 3.65136 47.4106 5.41559 44.6222 8.45624C43.3875 9.78144 42.3572 11.4888 42.3572 13.4237C42.3572 15.5294 43.5919 17.3587 45.1865 18.5863C46.7237 19.7164 48.6454 20.4806 50.06 21.9278C50.9677 22.8465 51.7363 23.9522 52.5049 25.0416C54.2467 27.4969 56.062 29.944 58.5478 31.5944C60.8946 33.1636 63.6667 33.9278 66.4142 33.9278C71.394 33.9278 77.0934 31.0335 79.0314 25.5457L79.0559 25.505C79.3585 24.6188 79.6202 23.5701 79.6202 22.5863Z" fill="#393AFB"/>
<path d="M155.283 21.3393V1.45312H150.066V23.3881C150.066 28.4938 148.627 36.7214 138.888 36.7214C127.881 36.7214 127.137 27.1686 127.137 22.9491V1.45312H121.675V21.0547C121.675 33.0222 127.726 38.3474 138.618 38.3474C149.093 38.3474 155.283 33.1198 155.283 21.3393Z" fill="#393AFB"/>
<path d="M80.6755 1.45312L95.9176 26.3637L95.8767 37.9409H101.118V26.3068L117.129 1.45312H114.766L100.489 24.0954L86.8411 1.45312H80.6755Z" fill="#393AFB"/>
<path d="M37.3289 27.317L32.2019 27.5365C29.1764 31.6422 25.0142 33.5284 19.5029 33.7723C11.2604 34.1381 3.02605 28.2682 2.78891 19.9593L2.77256 19.9511C2.70714 11.7153 10.5898 5.53649 18.7833 5.50397C24.2946 5.47958 28.5467 7.1625 31.7767 11.1219L36.5684 11.0975C33.6492 4.56088 27.0503 0.975511 19.6909 1.00803C13.0021 1.03242 6.90199 4.70722 3.6148 10.4796C0.0577675 16.7316 -0.0730656 25.2519 4.32621 31.13C7.94865 35.9674 13.9833 38.2845 19.9281 38.2601C23.8449 38.2438 27.6881 37.1625 30.8772 35.0731C33.7555 33.2275 36.0533 30.6097 37.3289 27.317Z" fill="#393AFB"/>
</svg>
