<svg width="40" height="35" viewBox="0 0 40 35" fill="none" xmlns="http://www.w3.org/2000/svg">
<path fill-rule="evenodd" clip-rule="evenodd" d="M38.5642 13.7234C39.0635 15.7256 39.3755 17.5029 39.3755 19.1752C39.3755 22.3998 38.1975 25.1295 35.0145 28.0542C32.2529 30.6338 28.8983 32.5611 25.2941 33.8585C24.116 34.2859 22.9224 34.4734 21.7444 34.4734C17.9608 34.4734 14.2551 32.5611 11.1502 30.4689C9.78494 29.524 8.29488 28.7216 6.96865 27.7242C4.9949 26.2769 3.99633 23.9971 3.263 21.7699C2.24102 18.5828 0.789971 15.5981 0.524725 12.186C0.485718 11.8861 0.485718 11.5861 0.485718 11.2937C0.485718 9.10391 1.5467 7.22914 3.2786 5.61683C4.55803 4.41697 6.1183 3.28461 7.74099 2.5047C9.58991 1.61231 11.3608 0.967385 13.3892 0.479943C14.9104 0.0899892 16.3615 0 17.7501 0C22.6338 0 26.9167 2.39221 30.8642 5.63933C31.4103 6.06678 32.0032 6.47173 32.6195 6.82419C33.7429 7.5291 35.0536 7.88156 36.1301 8.62397L36.1692 8.66147C37.7918 9.80883 38.0805 11.9611 38.5642 13.7234Z" fill="white"/>
</svg>
