<svg width="20" height="20" viewBox="0 0 20 20" fill="none" xmlns="http://www.w3.org/2000/svg">
<path d="M6.66665 14.1667C6.66665 15.0872 5.92045 15.8334 4.99998 15.8334C4.07951 15.8334 3.33331 15.0872 3.33331 14.1667" stroke="black"/>
<path d="M3.33332 14.1667C3.33332 13.2463 4.07952 12.5001 4.99999 12.5001C5.92046 12.5001 6.66666 13.2463 6.66666 14.1667" stroke="black"/>
<path d="M16.6666 14.1667C16.6666 15.0872 15.9205 15.8334 15 15.8334C14.0795 15.8334 13.3333 15.0872 13.3333 14.1667" stroke="black"/>
<path d="M13.3333 14.1667C13.3333 13.2463 14.0795 12.5001 15 12.5001C15.9205 12.5001 16.6667 13.2463 16.6667 14.1667" stroke="black"/>
<path d="M6.66666 14.1667H13.3333V4.16675H1.66666V14.1667H3.33332" stroke="black"/>
<path d="M13.3333 14.1667V6.66675C14.4047 6.66675 16.5476 6.66675 16.5476 6.66675L18.3333 11.2501V14.1667H17.0833" stroke="black"/>
</svg>
