<svg width="40" height="35" viewBox="0 0 40 35" fill="none" xmlns="http://www.w3.org/2000/svg">
<path fill-rule="evenodd" clip-rule="evenodd" d="M38.7642 13.7234C39.2635 15.7256 39.5755 17.5029 39.5755 19.1752C39.5755 22.3998 38.3975 25.1295 35.2146 28.0542C32.4529 30.6338 29.0983 32.5611 25.4941 33.8585C24.3161 34.2859 23.1224 34.4734 21.9444 34.4734C18.1608 34.4734 14.4551 32.5611 11.3502 30.4689C9.98496 29.524 8.49489 28.7216 7.16866 27.7242C5.19492 26.2769 4.19634 23.9971 3.46301 21.7699C2.44103 18.5828 0.989983 15.5981 0.724737 12.186C0.68573 11.8861 0.68573 11.5861 0.68573 11.2937C0.68573 9.10391 1.74671 7.22914 3.47862 5.61683C4.75804 4.41697 6.31831 3.28461 7.941 2.5047C9.78992 1.61231 11.5608 0.967385 13.5892 0.479943C15.1104 0.0899892 16.5615 0 17.9501 0C22.8338 0 27.1167 2.39221 31.0642 5.63933C31.6103 6.06678 32.2032 6.47173 32.8195 6.82419C33.9429 7.5291 35.2536 7.88156 36.3302 8.62397L36.3692 8.66147C37.9918 9.80883 38.2805 11.9611 38.7642 13.7234Z" fill="white"/>
</svg>
