<svg width="86" height="82" viewBox="0 0 86 82" fill="none" xmlns="http://www.w3.org/2000/svg">
<path opacity="0.3" fill-rule="evenodd" clip-rule="evenodd" d="M83.4645 32.643C84.5589 37.4057 85.2429 41.6332 85.2429 45.611C85.2429 53.2813 82.6608 59.7742 75.684 66.7309C69.6307 72.8671 62.2777 77.4514 54.3776 80.5373C51.7955 81.5541 49.1792 82 46.5971 82C38.3037 82 30.1813 77.4514 23.3755 72.4747C20.383 70.2271 17.117 68.3185 14.21 65.9461C9.88372 62.5034 7.69494 57.0807 6.08755 51.7829C3.84747 44.2019 0.666895 37.1025 0.0854994 28.9863C0 28.2728 0 27.5593 0 26.8636C0 21.655 2.32558 17.1956 6.12175 13.3605C8.92613 10.5064 12.3461 7.81292 15.9029 5.9578C19.9555 3.83511 23.8372 2.30107 28.2832 1.14161C31.6177 0.214053 34.7982 0 37.842 0C48.5465 0 57.9344 5.69023 66.5869 13.414C67.7839 14.4307 69.0835 15.394 70.4344 16.2323C72.8967 17.9091 75.7695 18.7474 78.1293 20.5134L78.2148 20.6026C81.7716 23.3317 82.4043 28.4512 83.4645 32.643ZM81.3099 47.4127C81.3099 45.2543 80.7627 43.1851 79.4118 41.5976C77.4111 39.4749 73.9056 39.0289 71.2381 37.4414C67.7839 35.6398 65.3728 32.4111 63.4576 28.8971C60.3283 23.1177 56.4467 17.7307 51.6758 13.414C48.4097 10.5778 44.4768 8.77616 40.4241 7.40265C37.4658 6.35023 34.3365 5.86861 31.2415 5.86861C22.6573 5.86861 13.9535 9.73939 8.12244 16.4107C5.54036 19.3183 3.38577 23.0642 3.38577 27.3095C3.38577 31.9295 5.96785 35.943 9.30232 38.6365C12.5171 41.1159 16.5356 42.7927 19.4939 45.9678C21.3919 47.9835 22.9993 50.4094 24.6067 52.7996C28.249 58.1866 32.0452 63.5558 37.2435 67.1768C42.1512 70.6195 47.948 72.2963 53.6936 72.2963C64.1074 72.2963 76.026 65.9461 80.0787 53.9056L80.13 53.8164C80.7627 51.8721 81.3099 49.571 81.3099 47.4127Z" fill="#DADADA"/>
</svg>
