<svg width="12" height="10" viewBox="0 0 12 10" fill="none" xmlns="http://www.w3.org/2000/svg">
<path d="M4.65335 7.33594H5.32002V5.33594H7.32002V4.66927H5.32002V2.66927H4.65335V4.66927H2.65335V5.33594H4.65335V7.33594ZM1.39802 9.66927C1.09135 9.66927 0.835129 9.5666 0.629351 9.36127C0.423574 9.15594 0.320907 8.89971 0.321352 8.5926V1.4126C0.321352 1.10594 0.424018 0.849937 0.629351 0.644604C0.834685 0.439271 1.09068 0.336382 1.39735 0.335938H8.57735C8.88402 0.335938 9.14002 0.438826 9.34535 0.644604C9.55068 0.850382 9.65357 1.1066 9.65402 1.41327V4.51527L11.6794 2.48994V7.51527L9.65402 5.48994V8.5926C9.65402 8.89927 9.55113 9.15549 9.34535 9.36127C9.13957 9.56705 8.88357 9.66971 8.57735 9.66927H1.39802ZM1.39802 9.0026H8.57802C8.69757 9.0026 8.7958 8.96416 8.87269 8.88727C8.94957 8.81038 8.98802 8.71216 8.98802 8.5926V1.4126C8.98802 1.29305 8.94957 1.19483 8.87269 1.11794C8.7958 1.04105 8.69735 1.0026 8.57735 1.0026H1.39735C1.2778 1.0026 1.17957 1.04105 1.10268 1.11794C1.0258 1.19483 0.987351 1.29327 0.987351 1.41327V8.5926C0.987351 8.71216 1.0258 8.81038 1.10268 8.88727C1.17957 8.96416 1.27846 9.0026 1.39802 9.0026Z" fill="#393AFB"/>
<path d="M0.987351 9.0026V1.0026M4.65335 7.33594H5.32002V5.33594H7.32002V4.66927H5.32002V2.66927H4.65335V4.66927H2.65335V5.33594H4.65335V7.33594ZM1.39802 9.66927C1.09135 9.66927 0.835129 9.5666 0.629351 9.36127C0.423574 9.15594 0.320907 8.89971 0.321352 8.5926V1.4126C0.321352 1.10594 0.424018 0.849937 0.629351 0.644604C0.834685 0.439271 1.09068 0.336382 1.39735 0.335938H8.57735C8.88402 0.335938 9.14002 0.438826 9.34535 0.644604C9.55069 0.850382 9.65357 1.1066 9.65402 1.41327V4.51527L11.6794 2.48994V7.51527L9.65402 5.48994V8.5926C9.65402 8.89927 9.55113 9.15549 9.34535 9.36127C9.13957 9.56705 8.88357 9.66971 8.57735 9.66927H1.39802ZM1.39802 9.0026H8.57802C8.69757 9.0026 8.7958 8.96416 8.87269 8.88727C8.94957 8.81038 8.98802 8.71216 8.98802 8.5926V1.4126C8.98802 1.29305 8.94957 1.19483 8.87269 1.11794C8.7958 1.04105 8.69735 1.0026 8.57735 1.0026H1.39735C1.2778 1.0026 1.17957 1.04105 1.10268 1.11794C1.0258 1.19483 0.987351 1.29327 0.987351 1.41327V8.5926C0.987351 8.71216 1.0258 8.81038 1.10268 8.88727C1.17957 8.96416 1.27846 9.0026 1.39802 9.0026Z" stroke="black" stroke-width="0.1"/>
</svg>
